<svg xmlns="http://www.w3.org/2000/svg" width="450" height="150" viewBox="0 0 450 150"><g fill="#fff"><path d="M190.196 36.282h-3.075V8.866H177V6.048h23.318v2.818h-10.122v27.416zM213.896 6.048h3.075v13.11h16.484V6.047h3.075v30.234h-3.076V21.976H216.97v14.306h-3.074V6.048zM256.685 33.464h16.185v2.818h-19.26V6.048h18.747v2.816h-15.672v10.293h14.646v2.82h-14.645v11.487zM84.316 36.242L57.55 9.476l3.386-3.388 26.767 26.766-3.387 3.388zM27.7 21.165c0 5.98-4.847 10.83-10.83 10.83-5.98 0-10.83-4.85-10.83-10.83 0-5.983 4.85-10.83 10.83-10.83 5.983 0 10.83 4.847 10.83 10.83M130.984 10.334c5.983 0 10.832 4.848 10.832 10.83s-4.85 10.832-10.832 10.832c-5.98 0-10.83-4.85-10.83-10.83 0-5.984 4.85-10.832 10.83-10.832"/><g><path d="M181.783 74.616c0 1.68.27 3.282.812 4.805.54 1.523 1.323 2.87 2.348 4.035 1.027 1.17 2.278 2.1 3.76 2.798 1.478.698 3.16 1.047 5.037 1.047 1.85 0 3.516-.35 4.997-1.047 1.48-.698 2.733-1.63 3.76-2.798 1.024-1.166 1.806-2.512 2.348-4.034.538-1.522.81-3.125.81-4.804 0-1.678-.272-3.28-.81-4.805-.542-1.52-1.324-2.866-2.35-4.032-1.025-1.17-2.278-2.1-3.758-2.8-1.48-.697-3.146-1.045-4.997-1.045-1.878 0-3.56.348-5.038 1.046-1.48.698-2.732 1.63-3.76 2.798-1.024 1.166-1.806 2.512-2.347 4.033-.542 1.525-.812 3.128-.812 4.806m29.253 15.502H193.74c-2.192 0-4.22-.385-6.085-1.153-1.865-.77-3.48-1.842-4.847-3.224-1.366-1.38-2.435-3.017-3.202-4.91-.77-1.894-1.154-3.965-1.154-6.214 0-2.248.385-4.32 1.154-6.213.767-1.894 1.836-3.53 3.202-4.912 1.368-1.38 2.982-2.454 4.847-3.222 1.865-.77 3.893-1.154 6.085-1.154 2.163 0 4.177.384 6.042 1.154 1.865.768 3.48 1.842 4.848 3.223 1.367 1.383 2.435 3.02 3.203 4.913.768 1.893 1.153 3.965 1.153 6.213 0 2.734-.563 5.19-1.686 7.367-1.125 2.177-2.925 3.922-5.403 5.23v.087h9.14v2.818zM246.61 78.073c0 1.254-.15 2.584-.45 3.994-.298 1.41-.86 2.71-1.687 3.907-.826 1.195-1.957 2.187-3.393 2.97-1.438.782-3.283 1.173-5.532 1.173-2.278 0-4.128-.39-5.55-1.174-1.425-.782-2.55-1.774-3.375-2.97-.826-1.195-1.387-2.496-1.686-3.906-.3-1.41-.45-2.74-.45-3.994v-18.96h3.075v18.62c0 1.45.144 2.698.428 3.735.283 1.04.66 1.916 1.13 2.628.47.71.998 1.273 1.582 1.687.583.413 1.166.733 1.75.96.584.23 1.148.378 1.686.45.542.07 1.012.105 1.41.105.37 0 .833-.035 1.39-.106.554-.07 1.123-.22 1.707-.45.582-.226 1.166-.546 1.75-.96.585-.413 1.112-.976 1.582-1.686.468-.712.845-1.588 1.13-2.628.285-1.037.428-2.284.428-3.736V59.114h3.075v18.96zM267.148 78.97h13.11l-6.534-15.884-6.576 15.885zm-4.484 10.763h-3.587L272.23 59.5h2.99l13.153 30.233h-3.588l-3.33-7.943h-15.46l-3.33 7.943zM323.22 85.122h.085V59.5h3.074V89.73h-3.844l-18.02-25.878h-.087v25.878h-3.075V59.5h3.842L323.22 85.12zM353.154 89.732h-3.075V62.316h-10.12V59.5h23.316v2.816h-10.122v27.416zM398.463 78.073c0 1.254-.15 2.584-.45 3.994-.297 1.41-.86 2.71-1.686 3.907-.826 1.195-1.958 2.187-3.394 2.97-1.437.782-3.282 1.173-5.53 1.173-2.28 0-4.13-.39-5.552-1.174-1.423-.782-2.548-1.774-3.373-2.97-.826-1.195-1.388-2.496-1.686-3.906-.3-1.41-.448-2.74-.448-3.994v-18.96h3.074v18.62c0 1.45.143 2.698.427 3.735.284 1.04.66 1.916 1.13 2.628.47.71 1 1.273 1.583 1.687.582.413 1.166.733 1.75.96.583.23 1.147.378 1.686.45.54.07 1.01.105 1.41.105.37 0 .832-.035 1.39-.106.554-.07 1.122-.22 1.706-.45.583-.226 1.166-.546 1.75-.96.585-.413 1.113-.976 1.583-1.686.468-.712.846-1.588 1.132-2.628.284-1.037.426-2.284.426-3.736V59.114h3.075v18.96zM429.934 84.096L440.14 59.5h4.697v30.233h-3.075V63.6h-.085l-10.93 26.133h-1.625L418.192 63.6h-.088v26.133h-3.073V59.5h4.697l10.207 24.596zM5.163 86.305L31.93 59.54l3.387 3.385L8.55 89.693l-3.387-3.388zM112.057 72.22h37.854v4.79h-37.853v-4.79zM72.626 63.784c5.98 0 10.83 4.85 10.83 10.832 0 5.98-4.85 10.83-10.83 10.83s-10.83-4.85-10.83-10.83c0-5.983 4.85-10.832 10.83-10.832"/></g><g><path d="M202.837 118.5c-1.025-1.082-2.25-1.936-3.673-2.563-1.424-.625-3.075-.938-4.954-.938-1.937 0-3.673.354-5.21 1.066-1.537.712-2.838 1.665-3.907 2.862-1.066 1.195-1.885 2.584-2.455 4.163-.57 1.582-.854 3.24-.854 4.976 0 1.737.284 3.395.854 4.976.57 1.58 1.39 2.967 2.455 4.162 1.07 1.195 2.37 2.152 3.907 2.863 1.537.71 3.273 1.066 5.21 1.066 1.567 0 3.068-.192 4.507-.576 1.436-.384 2.725-.903 3.865-1.56v-10.12h-7.218v-2.818h10.29v14.817c-1.706.997-3.58 1.76-5.614 2.285-2.037.526-3.98.79-5.83.79-2.25 0-4.335-.4-6.255-1.195-1.922-.796-3.587-1.903-4.997-3.31-1.41-1.41-2.513-3.083-3.31-5.02-.798-1.933-1.196-4.055-1.196-6.36 0-2.306.398-4.426 1.197-6.364.795-1.936 1.9-3.61 3.308-5.02 1.41-1.407 3.075-2.51 4.997-3.307 1.92-.798 4.005-1.195 6.255-1.195 2.42 0 4.507.336 6.257 1.003 1.75.67 3.31 1.688 4.676 3.054l-2.306 2.264zM226.58 132.423h13.11l-6.534-15.887-6.576 15.887zm-4.484 10.76h-3.587l13.153-30.234h2.988l13.155 30.234h-3.587l-3.332-7.944h-15.458l-3.332 7.944zM275.69 137.546l10.205-24.597h4.696v30.234h-3.074V117.05h-.085l-10.93 26.134h-1.624l-10.93-26.135h-.087v26.134h-3.075V112.95h4.696l10.21 24.596zM310.75 140.365h16.184v2.82h-19.26v-30.236h18.748v2.818H310.75v10.29h14.646v2.82H310.75v11.487zM79.02 128.066c0 3.868-3.135 7-7 7-3.87 0-7.004-3.132-7.004-7 0-3.867 3.135-7 7.003-7 3.865 0 7 3.133 7 7M27.242 128.066c0 3.868-3.135 7-7.002 7s-7.002-3.132-7.002-7c0-3.867 3.135-7 7.002-7s7.002 3.133 7.002 7M131.358 117.235c5.982 0 10.832 4.85 10.832 10.83 0 5.983-4.85 10.833-10.832 10.833-5.982 0-10.83-4.85-10.83-10.832 0-5.982 4.848-10.83 10.83-10.83"/></g></g></svg>